<?xml version="1.0" encoding="UTF-8"?>
<svg version="1.1" xmlns="http://www.w3.org/2000/svg" width="1536" height="1024">
<path d="M0 0 C506.88 0 1013.76 0 1536 0 C1536 337.92 1536 675.84 1536 1024 C1029.12 1024 522.24 1024 0 1024 C0 686.08 0 348.16 0 0 Z " fill="#FEFEFE" transform="translate(0,0)"/>
<path d="M0 0 C4.08544959 2.74004253 8.07573978 5.60740556 12.0625 8.48828125 C13.54387665 9.54612514 15.02565672 10.60340428 16.5078125 11.66015625 C26.47074347 18.78801972 36.30032289 26.08858115 46.0625 33.48828125 C46.89217285 34.11669922 47.7218457 34.74511719 48.57666016 35.39257812 C87.21998067 64.68522175 87.21998067 64.68522175 102.0625 78.48828125 C103.18785156 79.51501953 103.18785156 79.51501953 104.3359375 80.5625 C123.02697406 98.30258909 133.99184599 122.6294279 135.24920082 148.30003166 C135.32729519 152.43824824 135.344851 156.57197593 135.3371582 160.71069336 C135.34151793 162.28446186 135.34670522 163.85822825 135.35264587 165.43199158 C135.36590996 169.6634641 135.36662888 173.89484663 135.36408257 178.12633586 C135.36300449 181.67716567 135.3679173 185.22797789 135.372688 188.77880388 C135.38373909 197.16399167 135.38424513 205.54913465 135.37817383 213.93432617 C135.37213401 222.54582801 135.3844554 231.15716647 135.4057439 239.76864046 C135.42343055 247.20010405 135.42935028 254.63151596 135.42610615 262.06299978 C135.42430479 266.48488004 135.4268139 270.90664364 135.44082069 275.32850456 C135.45351066 279.48933487 135.45135094 283.64991253 135.43840981 287.81073952 C135.43606877 289.32509323 135.43868826 290.83946538 135.44703293 292.35379791 C135.51252735 305.17796633 134.62635763 318.31727545 128.375 329.80078125 C128.02614746 330.46537354 127.67729492 331.12996582 127.31787109 331.81469727 C124.19174242 337.59178867 120.57476894 342.69923745 116.0625 347.48828125 C115.34835937 348.25527344 114.63421875 349.02226563 113.8984375 349.8125 C109.14136327 354.49797947 104.09272769 357.84464797 98.1875 360.86328125 C97.56423828 361.18506348 96.94097656 361.5068457 96.29882812 361.83837891 C83.13795886 368.18068364 69.82291668 367.92476018 55.54956055 367.89233398 C53.27658758 367.89804354 51.00361748 367.90501006 48.73065186 367.91313171 C42.58381548 367.93101471 36.43712224 367.92990369 30.29026771 367.92418933 C25.14643962 367.92109004 20.00263874 367.92719825 14.85881454 367.93322808 C2.02377269 367.94805683 -10.81116915 367.9444734 -23.64620706 367.93236477 C-34.76103355 367.92243846 -45.87569343 367.93536772 -56.99049423 367.95929896 C-68.43686738 367.98375607 -79.88313376 367.99288294 -91.32953805 367.98664623 C-97.74230511 367.98328567 -104.15493461 367.9856317 -110.56768227 368.00289726 C-116.60152073 368.01843478 -122.63504274 368.01433539 -128.66886902 367.99559212 C-130.87339406 367.99192487 -133.07794291 367.99495976 -135.28244591 368.00547791 C-158.02556899 368.10563978 -176.96544861 364.02050814 -193.9375 347.48828125 C-208.95938646 330.75717374 -213.43603837 311.6905585 -213.30981445 289.703125 C-213.31225051 288.18832145 -213.31597765 286.67351951 -213.32087708 285.15872192 C-213.33017851 281.09252882 -213.32095244 277.02658099 -213.30754495 272.96040726 C-213.29611018 268.67534668 -213.30034714 264.39029609 -213.30229187 260.10522461 C-213.30317109 252.91353417 -213.29217289 245.72193866 -213.27368164 238.53027344 C-213.25251982 230.25334931 -213.24900645 221.97656405 -213.2552436 213.69961834 C-213.26096765 205.6889789 -213.25525596 197.67838762 -213.24407005 189.66775513 C-213.23946415 186.28059993 -213.23853262 182.89347458 -213.2406559 179.50631714 C-213.24256033 175.50719512 -213.23427227 171.50821142 -213.2185955 167.50912094 C-213.21440697 166.05443774 -213.21346468 164.59974036 -213.21628571 163.14505386 C-213.23718364 150.42549841 -212.59344001 137.58125048 -208.3125 125.48828125 C-208.05380127 124.74046387 -207.79510254 123.99264648 -207.52856445 123.22216797 C-201.44132228 106.30977715 -191.24682595 92.4838414 -178.9375 79.48828125 C-178.21820313 78.72773438 -177.49890625 77.9671875 -176.7578125 77.18359375 C-171.68259422 71.96388527 -166.26906249 67.3341611 -160.57714844 62.80273438 C-158.74102375 61.33077259 -156.92063186 59.84064059 -155.1015625 58.34765625 C-148.3037402 52.77383443 -141.46727778 47.29541139 -134.3984375 42.06640625 C-129.68363849 38.5728932 -125.03674008 34.98954175 -120.375 31.42578125 C-114.22227021 26.73078503 -108.07225728 22.04046883 -101.78125 17.53125 C-99.4567918 15.8613439 -97.14804948 14.1740005 -94.84375 12.4765625 C-67.14418249 -7.86418516 -67.14418249 -7.86418516 -49.9375 -12.51171875 C-48.90496094 -12.81142578 -48.90496094 -12.81142578 -47.8515625 -13.1171875 C-30.72760136 -16.64682031 -13.99942746 -9.10869123 0 0 Z " fill="#5D43FE" transform="translate(258.9375,299.51171875)"/>
<path d="M0 0 C146.92404306 0 146.92404306 0 169.75 21.25 C181.98752933 34.33858053 187.92394595 52.08232413 187.34375 69.875 C185.34865377 88.0122385 177.60499593 101.07307386 164 113 C157.43815514 118 157.43815514 118 153 118 C153 118.66 153 119.32 153 120 C154.175625 120.0928125 154.175625 120.0928125 155.375 120.1875 C168.57261481 123.14558608 178.70335594 132.98971869 186 144 C195.64612381 159.92793195 196.75610354 180.28018703 192.4375 198.1875 C188.67364249 209.9528448 182.7517635 219.34319235 174 228 C173.48308594 228.55042969 172.96617187 229.10085938 172.43359375 229.66796875 C134.52141702 266.59027142 16.79801969 248 0 248 C0 166.16 0 84.32 0 0 Z " fill="#000000" transform="translate(491,364)"/>
<path d="M0 0 C2.8125 2.625 2.8125 2.625 8.8125 10.625 C9.1425 3.365 9.4725 -3.895 9.8125 -11.375 C24.0025 -11.375 38.1925 -11.375 52.8125 -11.375 C52.88038463 11.53971809 52.93557908 34.45435397 52.96793652 57.3691473 C52.98336415 68.01037652 53.00437465 78.65153854 53.03881836 89.29272461 C53.06884695 98.57436009 53.08810478 107.85594686 53.09476548 117.13762957 C53.09865507 122.04605269 53.10770926 126.95433655 53.12969017 131.86271477 C53.15026868 136.49609847 53.15629131 141.12928742 53.15182304 145.76271248 C53.1526388 147.45038034 53.15847583 149.13805568 53.17011642 150.82568359 C53.34372007 177.32620991 47.34988805 201.96805956 28.79296875 221.78125 C11.7935892 238.18139354 -13.35583137 241.06971566 -35.875 241 C-36.57238281 240.99912384 -37.26976562 240.99824768 -37.98828125 240.99734497 C-61.73810317 240.89931454 -83.65174089 235.46157526 -101.4375 218.8125 C-109.73617229 210.14499783 -114.41017063 200.52550817 -114.1875 188.625 C-110.11719975 188.19042369 -106.04616664 187.76354596 -101.97436523 187.34326172 C-100.59427034 187.19977936 -99.21437836 187.05432921 -97.8347168 186.90673828 C-91.20822588 186.19907815 -84.57697211 185.52814485 -77.9140625 185.30078125 C-77.07311035 185.27153564 -76.2321582 185.24229004 -75.36572266 185.2121582 C-72.4579104 185.76328021 -71.60186145 186.97196052 -69.875 189.3125 C-68.97615557 190.74811913 -68.08014117 192.18551559 -67.1875 193.625 C-60.19235624 200.95324584 -49.67583627 203.23449828 -39.8125 203.828125 C-26.91325968 203.99492552 -13.55137313 202.97393122 -3.44921875 194.09765625 C6.78063639 183.30934748 7.15245716 167.3802856 6.9375 153.375 C6.92847656 152.23675781 6.91945313 151.09851563 6.91015625 149.92578125 C6.8869028 147.15862119 6.85422868 144.3919324 6.8125 141.625 C6.42723145 142.15464355 6.04196289 142.68428711 5.64501953 143.22998047 C-3.6524212 155.84855352 -14.84381899 163.29207997 -30.4296875 166.15234375 C-50.8159473 168.71651988 -71.52296086 164.50392283 -88.4375 152.4375 C-105.40341157 138.87378318 -115.17087583 121.31866099 -118.796875 100.05078125 C-119.49936284 93.66777784 -119.43185451 87.22663586 -119.4375 80.8125 C-119.43817474 80.12380829 -119.43884949 79.43511658 -119.43954468 78.72555542 C-119.42207605 67.47657522 -118.83320231 56.59581086 -116.1875 45.625 C-116.02121094 44.9345459 -115.85492187 44.2440918 -115.68359375 43.53271484 C-110.61745324 23.51676894 -100.05512463 5.67498956 -82.1875 -5.375 C-55.23923179 -20.5183993 -24.57447218 -18.31039104 0 0 Z " fill="#000000" transform="translate(1086.1875,443.375)"/>
<path d="M0 0 C19.12138104 15.0094486 29.66041277 34.9199341 33.61328125 58.6875 C36.73672444 87.07357454 33.03109149 117.19995879 15.0625 140.3125 C13.72634762 141.89043233 12.37284394 143.4538845 11 145 C10.40832031 145.68578125 9.81664062 146.3715625 9.20703125 147.078125 C-1.72675446 158.92111677 -17.45793996 166.52205649 -33 170 C-33.91136719 170.20625 -34.82273437 170.4125 -35.76171875 170.625 C-59.00366164 175.19094785 -82.99647605 170.64008071 -103 158 C-106.50096437 155.50760908 -109.77410192 152.83774124 -113 150 C-113.76183594 149.33355469 -114.52367187 148.66710937 -115.30859375 147.98046875 C-131.14895841 133.18331701 -141.14010851 110.09419766 -142.109375 88.57128906 C-142.91938086 60.69696252 -138.51135221 34.77287617 -120 13 C-119.401875 12.20464844 -118.80375 11.40929687 -118.1875 10.58984375 C-89.56306039 -23.29944815 -34.67404924 -23.8496375 0 0 Z " fill="#000000" transform="translate(915,445)"/>
<path d="M0 0 C16.5 0 33 0 50 0 C64.13397568 42.18777588 77.70794169 84.53952395 91 127 C92.71220076 124.43169886 93.54715936 122.70666687 94.47363281 119.84375 C94.74915985 119.00010895 95.02468689 118.1564679 95.30856323 117.28726196 C95.60376862 116.36746552 95.898974 115.44766907 96.203125 114.5 C96.51742462 113.53339447 96.83172424 112.56678894 97.1555481 111.57089233 C98.19135082 108.38197776 99.22066386 105.19100716 100.25 102 C100.97041994 99.77801292 101.69129087 97.55617201 102.41259766 95.33447266 C103.89151669 90.77740005 105.36806279 86.21956897 106.84277344 81.66113281 C108.82729009 75.52928384 110.82143843 69.40061941 112.8203125 63.2734375 C113.12000443 62.35458771 113.41969635 61.43573792 113.72846985 60.48904419 C114.3202715 58.67463519 114.91209348 56.86023282 115.50393677 55.0458374 C119.04328388 44.19355907 122.57694443 33.33969778 126.05859375 22.46875 C126.29604309 21.72831451 126.53349243 20.98787903 126.77813721 20.2250061 C127.87927834 16.79104397 128.97758845 13.35623883 130.06982422 9.91943359 C130.6327417 8.16107178 130.6327417 8.16107178 131.20703125 6.3671875 C131.5316333 5.34737793 131.85623535 4.32756836 132.19067383 3.27685547 C133 1 133 1 134 0 C135.44289787 -0.09295815 136.89029785 -0.11746513 138.33618164 -0.11352539 C139.2570607 -0.11344986 140.17793976 -0.11337433 141.12672424 -0.11329651 C142.12775681 -0.10813522 143.12878937 -0.10297394 144.16015625 -0.09765625 C145.68956093 -0.09553383 145.68956093 -0.09553383 147.24986267 -0.09336853 C150.52077107 -0.08775097 153.79161213 -0.0751955 157.0625 -0.0625 C159.27408756 -0.05748726 161.48567618 -0.05292396 163.69726562 -0.04882812 C169.13153357 -0.03777584 174.56576197 -0.02102063 180 0 C177.83835544 7.48313501 175.37634935 14.83402287 172.7890625 22.1796875 C172.18306969 23.90816925 172.18306969 23.90816925 171.56483459 25.67156982 C170.47919385 28.76567642 169.39140189 31.85901377 168.30215073 34.95185089 C167.61858254 36.89322596 166.93573496 38.83485313 166.25308228 40.77655029 C159.58458973 59.7415075 152.86465429 78.68617416 145.97705078 97.57275391 C144.46626551 101.71683346 142.96062129 105.86275888 141.45654297 110.00927734 C101.13889874 221.15535133 101.13889874 221.15535133 89 234 C88.31421875 234.78632812 87.6284375 235.57265625 86.921875 236.3828125 C77.46565895 246.68940769 64.96168246 251.49912773 51.11474609 252.13183594 C32.93108546 252.58621709 32.93108546 252.58621709 25 251 C25 239.12 25 227.24 25 215 C27.784375 214.9175 30.56875 214.835 33.4375 214.75 C41.88633504 214.35696062 48.07573348 213.21076352 54.75 207.75 C60.62892276 200.56464995 67.10572006 190.57641221 66.9720459 180.99667358 C66.37199516 175.23332521 64.91636006 170.21487839 62.8515625 164.81640625 C62.52768555 163.94492447 62.20380859 163.07344269 61.87011719 162.17555237 C60.79856027 159.30062163 59.7120891 156.43158997 58.625 153.5625 C57.85782647 151.51638861 57.09140308 149.46999583 56.32568359 147.42333984 C54.3033633 142.02735689 52.2672443 136.63668503 50.22753906 131.24725342 C49.02841017 128.07515444 47.83364506 124.90145179 46.640625 121.72705078 C35.42062573 91.8765405 23.81880319 62.18791104 12.0199585 32.56201172 C9.44199342 26.08647693 6.87351742 19.60725394 4.3125 13.125 C3.86068359 11.9901416 3.40886719 10.8552832 2.94335938 9.68603516 C2.3468457 8.17468994 2.3468457 8.17468994 1.73828125 6.6328125 C1.39837158 5.77574707 1.05846191 4.91868164 0.70825195 4.03564453 C0 2 0 2 0 0 Z " fill="#010101" transform="translate(1226,432)"/>
<path d="M0 0 C4.42704482 2.86790905 6.83476566 6.50984743 9.3984375 11.00390625 C9.7964859 11.68243149 10.1945343 12.36095673 10.60464478 13.06004333 C11.87076232 15.22224141 13.12333904 17.39190725 14.375 19.5625 C15.20737883 20.99339422 16.04070435 22.42373818 16.875 23.85351562 C17.28276672 24.55237885 17.69053345 25.25124207 18.11065674 25.97128296 C19.70475285 28.69704835 21.30608568 31.4185109 22.91003418 34.13848877 C23.91362239 35.85247897 24.89770012 37.57785369 25.87988281 39.30419922 C26.44803711 40.26471191 27.01619141 41.22522461 27.6015625 42.21484375 C28.07158691 43.02945068 28.54161133 43.84405762 29.02587891 44.68334961 C34.0033132 50.52441738 40.682787 52.8579695 47.91796875 54.71875 C49.60095007 55.18084899 51.28389162 55.64309284 52.96679688 56.10546875 C55.58551867 56.80796259 58.20564321 57.50479635 60.8269043 58.19775391 C63.38212793 58.87822496 65.93120479 59.57883655 68.48046875 60.28125 C69.2607695 60.48036987 70.04107025 60.67948975 70.84501648 60.88464355 C75.76365154 62.24865151 78.77530196 63.82342381 82 68 C83.16303714 71.77701287 82.7145051 75.45122158 81.06494141 79.02685547 C79.74921246 81.09502505 78.32472818 83.00849211 76.8125 84.9375 C76.01187134 86.01559937 76.01187134 86.01559937 75.19506836 87.11547852 C74.06240935 88.63935686 72.92098555 90.15675444 71.77148438 91.66796875 C67.16762418 97.72861823 62.6938429 103.88607684 58.32373047 110.1171875 C57.24428709 111.65253743 56.14284937 113.17240483 55.03515625 114.6875 C50.07276845 122.60532651 52.05439143 132.14842834 53 141 C53.08765625 141.8446582 53.1753125 142.68931641 53.265625 143.55957031 C53.61108752 146.86559584 53.96465931 150.17065145 54.32714844 153.47485352 C55.88987516 167.90879338 55.88987516 167.90879338 53.75 172.9375 C50.57764877 176.67634253 50.57764877 176.67634253 48 178 C41.7204324 178.47808621 37.56348997 177.41144111 31.921875 174.75390625 C31.18801575 174.42333725 30.45415649 174.09276825 29.69805908 173.75218201 C27.37541171 172.70286487 25.06265033 171.63364512 22.75 170.5625 C20.42138876 169.49907198 18.09092545 168.43987726 15.75909424 167.38352966 C14.31438742 166.7274526 12.8718483 166.06657516 11.43182373 165.40028381 C3.52031715 161.77152924 -3.80152652 160.39575966 -12.31640625 163.0234375 C-16.25770012 164.58957184 -20.13195062 166.26239969 -24 168 C-26.6975486 169.20470068 -29.39699181 170.4042867 -32.10205078 171.59204102 C-33.90820999 172.38698642 -35.70903799 173.19419284 -37.50341797 174.01538086 C-42.90550094 176.4062549 -48.02425729 178.12096333 -54 178 C-58.29999251 176.31739424 -59.94190957 174.04661162 -62 170 C-63.06977891 162.36200865 -61.77860166 154.31669581 -61 146.6875 C-58.36487128 127.90436887 -58.36487128 127.90436887 -65 111 C-65.69351563 110.07703125 -66.38703125 109.1540625 -67.1015625 108.203125 C-68.75148019 106.04264646 -70.41347368 103.89803478 -72.09375 101.76171875 C-75.51141478 97.38343241 -78.75544154 92.88228359 -82 88.375 C-82.56396484 87.59261963 -83.12792969 86.81023926 -83.70898438 86.00415039 C-91.03903762 75.80702851 -91.03903762 75.80702851 -90 69 C-86.82206987 63.04138101 -81.02295384 61.93644004 -74.96337891 60.05932617 C-71.50074067 59.02418546 -68.03302694 58.00836719 -64.5625 57 C-60.03732108 55.68087935 -55.5157885 54.35093408 -51 53 C-50.09942871 52.73405029 -49.19885742 52.46810059 -48.27099609 52.1940918 C-47.47902832 51.94828369 -46.68706055 51.70247559 -45.87109375 51.44921875 C-45.19876709 51.24385498 -44.52644043 51.03849121 -43.83374023 50.8269043 C-36.82949706 47.66842052 -33.40066104 39.39664383 -29.90942383 33.00268555 C-26.20631165 26.25031485 -22.23218454 19.67762298 -18.1875 13.125 C-17.54103516 12.06023437 -16.89457031 10.99546875 -16.22851562 9.8984375 C-15.30135742 8.40570313 -15.30135742 8.40570313 -14.35546875 6.8828125 C-13.53018677 5.54307373 -13.53018677 5.54307373 -12.68823242 4.17626953 C-9.22773322 -0.28459668 -5.46106132 -0.57484856 0 0 Z " fill="#FEFEFE" transform="translate(225,406)"/>
<path d="M0 0 C14.85 0 29.7 0 45 0 C45 81.84 45 163.68 45 248 C30.15 248 15.3 248 0 248 C0 166.16 0 84.32 0 0 Z " fill="#000000" transform="translate(1167,364)"/>
<path d="M0 0 C14.85 0 29.7 0 45 0 C45 81.84 45 163.68 45 248 C30.15 248 15.3 248 0 248 C0 166.16 0 84.32 0 0 Z " fill="#000000" transform="translate(707,364)"/>
<path d="M0 0 C11.47278608 9.43578121 17.10046126 21.76241672 19.75 36.25 C20.16539327 40.84288961 20.22712346 45.39036561 20.1875 50 C20.18065186 51.22702637 20.17380371 52.45405273 20.16674805 53.71826172 C19.8413944 72.16471669 15.21505265 87.15768237 1.75 100.25 C-6.35748534 107.52237955 -15.60011564 109.07603947 -26.24609375 108.65234375 C-36.98174239 107.8331987 -45.22562426 102.11479213 -52.25 94.25 C-64.28278673 78.19764012 -66.340259 57.18645753 -63.9453125 37.78125 C-61.44531977 22.67925313 -55.30489849 8.66049093 -42.6953125 -0.6328125 C-29.09365856 -9.19069203 -13.3169649 -9.35510394 0 0 Z " fill="#FEFEFE" transform="translate(883.25,471.75)"/>
<path d="M0 0 C11.99192022 8.53623329 17.68481705 21.17135012 20.28417969 35.35400391 C22.8118227 53.1575675 20.39170188 71.72094454 10.16796875 86.765625 C4.50220131 93.94432217 -3.43356578 98.14399298 -12.390625 99.64453125 C-24.52158704 100.80483076 -34.95967104 99.74527542 -45.140625 92.51953125 C-54.71544532 84.44932555 -60.28959775 72.90014661 -62.390625 60.64453125 C-63.62031202 40.95277053 -62.39900045 22.7825113 -49.015625 7.20703125 C-35.79711334 -6.56317121 -16.89875828 -9.5814855 0 0 Z " fill="#FDFDFD" transform="translate(1074.390625,471.35546875)"/>
<path d="M0 0 C10.126875 -0.061875 20.25375 -0.12375 30.6875 -0.1875 C33.85819092 -0.21481201 37.02888184 -0.24212402 40.2956543 -0.27026367 C42.84683859 -0.2790366 45.39802713 -0.28667862 47.94921875 -0.29296875 C49.8898822 -0.3159906 49.8898822 -0.3159906 51.86975098 -0.33947754 C64.59469812 -0.34308882 77.51359048 1.11881867 87.22265625 10.04296875 C94.88186229 18.11919145 96.48760534 24.62736478 96.42456055 35.6340332 C96.1314691 44.55322735 93.42405537 51.72194589 87 58 C75.47237282 67.40482404 59.4345321 67.15625198 45.3125 67.09765625 C43.58483398 67.09614563 43.58483398 67.09614563 41.82226562 67.09460449 C37.54816686 67.08939972 33.27408235 67.07543858 29 67.0625 C19.43 67.041875 9.86 67.02125 0 67 C0 44.89 0 22.78 0 0 Z " fill="#FDFDFD" transform="translate(539,506)"/>
<path d="M0 0 C9.6525 -0.061875 19.305 -0.12375 29.25 -0.1875 C33.78476074 -0.22846802 33.78476074 -0.22846802 38.41113281 -0.27026367 C40.84179283 -0.27903605 43.27245729 -0.2866782 45.703125 -0.29296875 C46.93724121 -0.30831665 48.17135742 -0.32366455 49.44287109 -0.33947754 C61.38978466 -0.34303741 72.70226929 1.20097526 81.71484375 9.59765625 C88.65779672 17.04987227 89.57438297 24.44440638 89.34765625 34.37109375 C88.87620427 39.29220487 87.6749055 42.86987862 85 47 C84.61070312 47.62261719 84.22140625 48.24523437 83.8203125 48.88671875 C78.20088153 56.55109057 68.95866741 59.84471141 59.93896484 61.58580017 C54.49097489 62.35360674 49.04629891 62.24294822 43.5546875 62.1953125 C42.44424072 62.19329834 41.33379395 62.19128418 40.18969727 62.18920898 C36.0847555 62.17883093 31.97987312 62.1509091 27.875 62.125 C14.076875 62.063125 14.076875 62.063125 0 62 C0 41.54 0 21.08 0 0 Z " fill="#FDFDFD" transform="translate(539,405)"/>
<path d="M0 0 C0.66 0 1.32 0 2 0 C3.35439668 2.70879335 3.06501451 5.00933268 3 8 C2.01 7.67 1.02 7.34 0 7 C0 4.69 0 2.38 0 0 Z " fill="#654DFD" transform="translate(278,551)"/>
</svg>
